<svg id="SvgjsSvg1006" width="519.5" height="234" xmlns="http://www.w3.org/2000/svg" version="1.1" xmlns:xlink="http://www.w3.org/1999/xlink" xmlns:svgjs="http://svgjs.com/svgjs"><defs id="SvgjsDefs1007"><pattern patternUnits="userSpaceOnUse" id="pattern_mark_0" width="300" height="300"><text x="150" y="100" fill="rgba(229,229,229,0.8)" font-size="18" transform="rotate(-45, 150, 150)" style="dominant-baseline: middle; text-anchor: middle;"></text></pattern><pattern patternUnits="userSpaceOnUse" id="pattern_mark_1" width="300" height="300"><text x="150" y="200" fill="rgba(229,229,229,0.8)" font-size="18" transform="rotate(-45, 150, 150)" style="dominant-baseline: middle; text-anchor: middle;"></text></pattern><marker id="SvgjsMarker1069" markerWidth="13" markerHeight="9" refX="3.5" refY="4.5" viewBox="0 0 13 9" orient="auto" markerUnits="userSpaceOnUse" stroke-dasharray="0,0"><path id="SvgjsPath1070" d="M13,0 L0,4.5 L13,9 L13,0" fill="#323232" stroke="#323232" stroke-width="1"></path></marker><marker id="SvgjsMarker1071" markerWidth="13" markerHeight="9" refX="9.5" refY="4.5" viewBox="0 0 13 9" orient="auto" markerUnits="userSpaceOnUse" stroke-dasharray="0,0"><path id="SvgjsPath1072" d="M0,0 L13,4.5 L0,9 L0,0" fill="#323232" stroke="#323232" stroke-width="1"></path></marker><marker id="SvgjsMarker1075" markerWidth="13" markerHeight="9" refX="3.5" refY="4.5" viewBox="0 0 13 9" orient="auto" markerUnits="userSpaceOnUse" stroke-dasharray="0,0"><path id="SvgjsPath1076" d="M13,0 L0,4.5 L13,9 L13,0" fill="#323232" stroke="#323232" stroke-width="1"></path></marker><marker id="SvgjsMarker1077" markerWidth="13" markerHeight="9" refX="9.5" refY="4.5" viewBox="0 0 13 9" orient="auto" markerUnits="userSpaceOnUse" stroke-dasharray="0,0"><path id="SvgjsPath1078" d="M0,0 L13,4.5 L0,9 L0,0" fill="#323232" stroke="#323232" stroke-width="1"></path></marker><marker id="SvgjsMarker1081" markerWidth="13" markerHeight="9" refX="3.5" refY="4.5" viewBox="0 0 13 9" orient="auto" markerUnits="userSpaceOnUse" stroke-dasharray="0,0"><path id="SvgjsPath1082" d="M13,0 L0,4.5 L13,9 L13,0" fill="#323232" stroke="#323232" stroke-width="1"></path></marker><marker id="SvgjsMarker1083" markerWidth="13" markerHeight="9" refX="9.5" refY="4.5" viewBox="0 0 13 9" orient="auto" markerUnits="userSpaceOnUse" stroke-dasharray="0,0"><path id="SvgjsPath1084" d="M0,0 L13,4.5 L0,9 L0,0" fill="#323232" stroke="#323232" stroke-width="1"></path></marker><marker id="SvgjsMarker1087" markerWidth="13" markerHeight="9" refX="3.5" refY="4.5" viewBox="0 0 13 9" orient="auto" markerUnits="userSpaceOnUse" stroke-dasharray="0,0"><path id="SvgjsPath1088" d="M13,0 L0,4.5 L13,9 L13,0" fill="#323232" stroke="#323232" stroke-width="1"></path></marker><marker id="SvgjsMarker1089" markerWidth="13" markerHeight="9" refX="9.5" refY="4.5" viewBox="0 0 13 9" orient="auto" markerUnits="userSpaceOnUse" stroke-dasharray="0,0"><path id="SvgjsPath1090" d="M0,0 L13,4.5 L0,9 L0,0" fill="#323232" stroke="#323232" stroke-width="1"></path></marker><marker id="SvgjsMarker1099" markerWidth="13" markerHeight="9" refX="3.5" refY="4.5" viewBox="0 0 13 9" orient="auto" markerUnits="userSpaceOnUse" stroke-dasharray="0,0"><path id="SvgjsPath1100" d="M13,0 L0,4.5 L13,9 L13,0" fill="#323232" stroke="#323232" stroke-width="1"></path></marker><marker id="SvgjsMarker1101" markerWidth="13" markerHeight="9" refX="9.5" refY="4.5" viewBox="0 0 13 9" orient="auto" markerUnits="userSpaceOnUse" stroke-dasharray="0,0"><path id="SvgjsPath1102" d="M0,0 L13,4.5 L0,9 L0,0" fill="#323232" stroke="#323232" stroke-width="1"></path></marker></defs><rect id="svgbackgroundid" width="519.5" height="234" fill="transparent"></rect><rect id="SvgjsRect1009" width="519.5" height="234" fill="url(#pattern_mark_0)"></rect><rect id="SvgjsRect1010" width="519.5" height="234" fill="url(#pattern_mark_1)"></rect><g id="SvgjsG1011" transform="translate(25,25)"><path id="SvgjsPath1012" d="M 0 0L 329 0L 329 150L 0 150Z" stroke="rgba(33,41,48,1)" stroke-width="1.5" fill-opacity="1" fill="#ffffff"></path><g id="SvgjsG1013"><text id="SvgjsText1014" font-family="微软雅黑" text-anchor="middle" font-size="13px" width="309px" fill="#323232" font-weight="400" align="middle" lineHeight="125%" anchor="middle" family="微软雅黑" size="13px" weight="400" font-style="" opacity="1" y="64.375" transform="rotate(0)"></text></g></g><g id="SvgjsG1015" transform="translate(42,42)"><path id="SvgjsPath1016" d="M 0 0L 113 0L 113 116L 0 116Z" stroke="rgba(33,41,48,1)" stroke-width="1.5" fill-opacity="1" fill="#ffffff"></path><g id="SvgjsG1017"><text id="SvgjsText1018" font-family="微软雅黑" text-anchor="middle" font-size="13px" width="93px" fill="#323232" font-weight="400" align="middle" lineHeight="125%" anchor="middle" family="微软雅黑" size="13px" weight="400" font-style="" opacity="1" y="47.375" transform="rotate(0)"></text></g></g><g id="SvgjsG1019" transform="translate(50.5,72)"><path id="SvgjsPath1020" d="M 0 0L 96 0L 96 54L 0 54Z" stroke="rgba(33,41,48,1)" stroke-width="1.5" fill-opacity="1" fill="#ffffff"></path><g id="SvgjsG1021"><text id="SvgjsText1022" font-family="微软雅黑" text-anchor="middle" font-size="13px" width="76px" fill="#323232" font-weight="400" align="middle" lineHeight="125%" anchor="middle" family="微软雅黑" size="13px" weight="400" font-style="" opacity="1" y="7.875" transform="rotate(0)"><tspan id="SvgjsTspan1023" dy="16" x="48"><tspan id="SvgjsTspan1024" style="text-decoration:;">ChatGLM2 </tspan></tspan><tspan id="SvgjsTspan1025" dy="16" x="48"><tspan id="SvgjsTspan1026" style="text-decoration:;">BModel</tspan></tspan></text></g></g><g id="SvgjsG1027" transform="translate(60,134)"><path id="SvgjsPath1028" d="M 0 0L 77 0L 77 22L 0 22Z" stroke="none" fill="none"></path><g id="SvgjsG1029"><text id="SvgjsText1030" font-family="微软雅黑" text-anchor="middle" font-size="13px" width="77px" fill="#323232" font-weight="400" align="middle" lineHeight="125%" anchor="middle" family="微软雅黑" size="13px" weight="400" font-style="" opacity="1" y="0.375" transform="rotate(0)"><tspan id="SvgjsTspan1031" dy="16" x="38.5"><tspan id="SvgjsTspan1032" style="text-decoration:;">BM1864X</tspan></tspan></text></g></g><g id="SvgjsG1033" transform="translate(191,64.75)"><path id="SvgjsPath1034" d="M 0 0L 46 0L 46 70.5L 0 70.5Z" stroke="rgba(33,41,48,1)" stroke-width="1.5" fill-opacity="1" fill="#ffffff"></path><g id="SvgjsG1035"><text id="SvgjsText1036" font-family="微软雅黑" text-anchor="middle" font-size="13px" width="26px" fill="#323232" font-weight="400" align="middle" lineHeight="125%" anchor="middle" family="微软雅黑" size="13px" weight="400" font-style="" opacity="1" y="16.125" transform="rotate(0)"><tspan id="SvgjsTspan1037" dy="16" x="23"><tspan id="SvgjsTspan1038" style="text-decoration:;">cpp </tspan></tspan><tspan id="SvgjsTspan1039" dy="16" x="23"><tspan id="SvgjsTspan1040" style="text-decoration:;">推理</tspan></tspan></text></g></g><g id="SvgjsG1041" transform="translate(396,27.75)"><path id="SvgjsPath1042" d="M 0 4Q 0 0 4 0L 92 0Q 96 0 96 4L 96 33Q 96 37 92 37L 4 37Q 0 37 0 33Z" stroke="rgba(33,41,48,1)" stroke-width="1.5" fill-opacity="1" fill="#ffffff"></path><g id="SvgjsG1043"><text id="SvgjsText1044" font-family="微软雅黑" text-anchor="middle" font-size="13px" width="76px" fill="#323232" font-weight="400" align="middle" lineHeight="125%" anchor="middle" family="微软雅黑" size="13px" weight="400" font-style="" opacity="1" y="7.875" transform="rotate(0)"><tspan id="SvgjsTspan1045" dy="16" x="48"><tspan id="SvgjsTspan1046" style="text-decoration:;">ChatBot</tspan></tspan></text></g></g><g id="SvgjsG1047" transform="translate(396,82.5)"><path id="SvgjsPath1048" d="M 0 4Q 0 0 4 0L 92 0Q 96 0 96 4L 96 31Q 96 35 92 35L 4 35Q 0 35 0 31Z" stroke="rgba(33,41,48,1)" stroke-width="1.5" fill-opacity="1" fill="#ffffff"></path><g id="SvgjsG1049"><text id="SvgjsText1050" font-family="微软雅黑" text-anchor="middle" font-size="13px" width="76px" fill="#323232" font-weight="400" align="middle" lineHeight="125%" anchor="middle" family="微软雅黑" size="13px" weight="400" font-style="" opacity="1" y="6.875" transform="rotate(0)"><tspan id="SvgjsTspan1051" dy="16" x="48"><tspan id="SvgjsTspan1052" style="text-decoration:;">ChatDoc</tspan></tspan></text></g></g><g id="SvgjsG1053" transform="translate(273,79.5)"><path id="SvgjsPath1054" d="M 0 0L 61 0L 61 41L 0 41Z" stroke="rgba(33,41,48,1)" stroke-width="1.5" fill-opacity="1" fill="#ffffff"></path><g id="SvgjsG1055"><text id="SvgjsText1056" font-family="微软雅黑" text-anchor="middle" font-size="13px" width="41px" fill="#323232" font-weight="400" align="middle" lineHeight="125%" anchor="middle" family="微软雅黑" size="13px" weight="400" font-style="" opacity="1" y="1.375" transform="rotate(0)"><tspan id="SvgjsTspan1057" dy="16" x="30.5"><tspan id="SvgjsTspan1058" style="text-decoration:;">python</tspan></tspan><tspan id="SvgjsTspan1059" dy="16" x="30.5"><tspan id="SvgjsTspan1060" style="text-decoration:;">调用</tspan></tspan></text></g></g><g id="SvgjsG1061" transform="translate(137,181)"><path id="SvgjsPath1062" d="M 0 0L 107 0L 107 27L 0 27Z" stroke="none" fill="none"></path><g id="SvgjsG1063"><text id="SvgjsText1064" font-family="微软雅黑" text-anchor="middle" font-size="13px" width="107px" fill="#323232" font-weight="400" align="middle" lineHeight="125%" anchor="middle" family="微软雅黑" size="13px" weight="400" font-style="" opacity="1" y="2.875" transform="rotate(0)"><tspan id="SvgjsTspan1065" dy="16" x="53.5"><tspan id="SvgjsTspan1066" style="text-decoration:;">推理引擎</tspan></tspan></text></g></g><g id="SvgjsG1067"><path id="SvgjsPath1068" d="M157.7 100L188.3 100" stroke="#323232" stroke-width="1.5" fill="none" marker-start="url(#SvgjsMarker1069)" marker-end="url(#SvgjsMarker1071)"></path></g><g id="SvgjsG1073"><path id="SvgjsPath1074" d="M239.7 100L270.3 100" stroke="#323232" stroke-width="1.5" fill="none" marker-start="url(#SvgjsMarker1075)" marker-end="url(#SvgjsMarker1077)"></path></g><g id="SvgjsG1079"><path id="SvgjsPath1080" d="M336.7 100L365 100L365 46.25L393.29999999999995 46.25" stroke="#323232" stroke-width="1.5" fill="none" marker-start="url(#SvgjsMarker1081)" marker-end="url(#SvgjsMarker1083)"></path></g><g id="SvgjsG1085"><path id="SvgjsPath1086" d="M393.29999999999995 100L336.7 100" stroke="#323232" stroke-width="1.5" fill="none" marker-start="url(#SvgjsMarker1087)" marker-end="url(#SvgjsMarker1089)"></path></g><g id="SvgjsG1091" transform="translate(396,140)"><path id="SvgjsPath1092" d="M 0 4Q 0 0 4 0L 92 0Q 96 0 96 4L 96 31Q 96 35 92 35L 4 35Q 0 35 0 31Z" stroke="rgba(33,41,48,1)" stroke-width="1.5" fill-opacity="1" fill="#ffffff"></path><g id="SvgjsG1093"><text id="SvgjsText1094" font-family="微软雅黑" text-anchor="middle" font-size="13px" width="76px" fill="#323232" font-weight="400" align="middle" lineHeight="125%" anchor="middle" family="微软雅黑" size="13px" weight="400" font-style="" opacity="1" y="6.875" transform="rotate(0)"><tspan id="SvgjsTspan1095" dy="16" x="48"><tspan id="SvgjsTspan1096" style="text-decoration:;">......</tspan></tspan></text></g></g><g id="SvgjsG1097"><path id="SvgjsPath1098" d="M393.29999999999995 157.5L365 157.5L365 100L336.7 100" stroke="#323232" stroke-width="1.5" fill="none" marker-start="url(#SvgjsMarker1099)" marker-end="url(#SvgjsMarker1101)"></path></g><g id="SvgjsG1103" transform="translate(393.5,175)"><path id="SvgjsPath1104" d="M 0 0L 101 0L 101 34L 0 34Z" stroke="none" fill="none"></path><g id="SvgjsG1105"><text id="SvgjsText1106" font-family="微软雅黑" text-anchor="middle" font-size="13px" width="101px" fill="#323232" font-weight="400" align="middle" lineHeight="125%" anchor="middle" family="微软雅黑" size="13px" weight="400" font-style="" opacity="1" y="6.375" transform="rotate(0)"><tspan id="SvgjsTspan1107" dy="16" x="50.5"><tspan id="SvgjsTspan1108" style="text-decoration:;">LLM应用</tspan></tspan></text></g></g></svg>